<?xml version="1.0" encoding="utf-8"?>
<!-- Generator: Adobe Illustrator 19.2.1, SVG Export Plug-In . SVG Version: 6.00 Build 0)  -->
<svg version="1.1" id="Capa_1" xmlns="http://www.w3.org/2000/svg" xmlns:xlink="http://www.w3.org/1999/xlink" x="0px" y="0px"
	 viewBox="0 0 476.2 476.2" style="enable-background:new 0 0 476.2 476.2;" xml:space="preserve">
<style type="text/css">
	.st0{fill:#333333;}
</style>
<g>
	<path class="st0" d="M69.7,384.4L186,268.1c11.1-11.1,14.3-26.9,9.9-41l36-36c10.8,8.8,21.9,15.8,32.9,20.9c0.8-2.5,2.1-4.8,4-6.7
		l60.3-60.3c1.9-1.9,4.2-3.1,6.7-3.9c-7.4-15.9-18.7-32.2-33.6-47c-15.2-15.2-31.8-26.7-48-34c-0.8,2.3-2.1,4.5-3.9,6.3l-60.3,60.3
		c-1.8,1.8-3.9,3.1-6.3,4c5.1,11.3,12.3,22.8,21.3,33.8l-36,36c-14-4.3-29.9-1.2-41,9.9L12,326.7C-4,342.7-4,368.5,12,384.4
		S53.7,400.4,69.7,384.4z"/>
	<path class="st0" d="M274.6,211.1c-1.1,1.1-1.8,2.5-2.3,4.1c-1.5,5.4,0.9,12.9,6.6,18.6c4.4,4.4,10.1,7.1,15.2,7.1
		c2.1,0,5.2-0.5,7.5-2.8l18.6-18.6l23-23l18.6-18.6c2.3-2.3,3.2-5.8,2.6-9.8c-0.7-4.5-3.1-9.1-6.9-12.8c-4.4-4.4-10.1-7.1-15.2-7.1
		c-1,0-2.2,0.1-3.4,0.5c-1.4,0.4-2.9,1.1-4.1,2.3L274.6,211.1z"/>
	<path class="st0" d="M176.9,123.7c1.1,0,2.5-0.1,3.8-0.6c1.3-0.4,2.5-1.1,3.6-2.2l60.3-60.3c1-1,1.7-2.3,2.1-3.7
		c1.8-5.4-0.6-13.2-6.4-19c-4.4-4.4-10.1-7.1-15.2-7.1c-2.1,0-5.2,0.5-7.5,2.8l-20.5,20.5L178,73.4L157.4,94c-5,5-3,15.4,4.3,22.7
		C166.2,121.1,171.9,123.7,176.9,123.7z"/>
	<path class="st0" d="M300.4,387.3c9.9-1,20.5-1.3,31.6-1.3c4.7,0,9.6,0,14.5,0.1c10.2,0.1,21,0.1,31.2,0c4.9,0,9.8-0.1,14.5-0.1
		c11.1,0,21.7,0.3,31.6,1.3v-23.6H300.4V387.3z"/>
	<path class="st0" d="M392.2,394.2c-4.7,0-9.5,0-14.4,0.1c-10.3,0.1-21.1,0.1-31.3,0c-4.9,0-9.7-0.1-14.4-0.1
		c-11.5,0-22.1,0.2-31.6,1.1c-31.4,3-51.1,13.6-52.5,50h228.3c-1.3-36.5-21.1-47.1-52.5-50C414.3,394.4,403.7,394.2,392.2,394.2z"/>
</g>
</svg>
