<?xml version="1.0" encoding="utf-8"?>
<!-- Generator: Adobe Illustrator 19.2.1, SVG Export Plug-In . SVG Version: 6.00 Build 0)  -->
<svg version="1.1" id="Capa_1" xmlns="http://www.w3.org/2000/svg" xmlns:xlink="http://www.w3.org/1999/xlink" x="0px" y="0px"
	 viewBox="0 0 572.4 572.4" style="enable-background:new 0 0 572.4 572.4;" xml:space="preserve">
<style type="text/css">
	.st0{fill:#333333;}
</style>
<g>
	<g>
		<path class="st0" d="M368.8,184.7c27.5,0,49.9-22.4,49.9-49.9c0-27.5-22.4-49.9-49.9-49.9c-27.5,0-49.9,22.4-49.9,49.9
			C318.9,162.3,341.3,184.7,368.8,184.7z"/>
		<path class="st0" d="M569.2,309.2l-36-36c-2.1-2.1-4.8-3.2-7.7-3.2c-2.9,0-5.7,1.1-7.7,3.2l-10.5,10.5c-0.4-0.5-0.9-1-1.4-1.5
			c-4.8-4.8-11.3-7.5-18.3-7.5l-17.1-23.3c-4.5-6.2-12.2-14.8-17.8-20.1l-35.2-32.7c-2.5-2.3-7.5-5.7-13.4-5.7c0,0-61.3,0-61.6,0
			c-8.1,0-15.3,4.5-18.9,11.7l-25.7,51.4c-1.9,3.8-6.6,10.5-9.5,13.6L270.4,289c-3.9,4.1-5.9,9.5-5.7,15.1
			c0.2,5.6,2.5,10.9,6.6,14.7c3.9,3.7,9.1,5.7,14.5,5.7c5.8,0,11.4-2.4,15.4-6.6l18.2-19.3c5.7-6.1,12.8-16.2,16.5-23.7l3.8-7.6
			c0,0,5.3,30.2,6.9,40.3c0.1,0.5,0.1,1.1,0.1,1.3l-5.9,66.5c-0.6,7.2-0.9,18.5-0.7,25.7l2.4,67.8c0.4,12.1,10.2,21.5,22.2,21.5
			c0.3,0,0.5,0,0.8,0c12.3-0.4,21.9-10.8,21.5-23l-2.4-67.8c-0.2-5.4,0.1-14.8,0.5-20.2l4-44.6h8.4l12.2,51.1
			c1.8,7.5,5.4,18.4,8.5,25.4l25.8,59.1c3.5,8.1,11.6,13.4,20.4,13.4c0.2,0,0.4,0,0.6,0c2.9-0.1,5.6-0.7,8.3-1.9
			c5.5-2.4,9.7-6.7,11.8-12.3c2.2-5.5,2.1-11.6-0.3-17L459,393.5c-2-4.6-4.8-13-6-18l-22.4-106.3c2.3,2.6,4.5,5.2,6,7.3l17.1,23.4
			c1.5,2,3.3,3.8,5.4,5.1c0.4,6.4,2.9,12.3,7.4,16.8c0.5,0.5,1,0.9,1.5,1.4l-10.5,10.5c-2.1,2.1-3.2,4.8-3.2,7.7s1.1,5.7,3.2,7.7
			l36,36c2.1,2.1,4.8,3.2,7.7,3.2s5.7-1.1,7.7-3.2l60.4-60.4c2.1-2.1,3.2-4.8,3.2-7.7C572.4,314,571.3,311.2,569.2,309.2z
			 M475.6,312.6c-1.2-1.2-2.1-2.6-2.8-4.2c3.7-0.4,7.2-1.7,10.3-4c4.5-3.3,7.5-8.2,8.4-13.8c0.1-0.7,0.2-1.5,0.2-2.2
			c1.9,0.6,3.6,1.6,5,3c0.5,0.5,0.9,1,1.3,1.5l-20.9,20.9C476.6,313.5,476.1,313.1,475.6,312.6z"/>
	</g>
	<path class="st0" d="M255.2,359.1H244V122.7c0-6-4.8-10.8-10.8-10.8h-29.4v-19c0-6-4.8-10.8-10.8-10.8H72.5
		c-6,0-10.8,4.8-10.8,10.8v19H32.3c-6,0-10.8,4.8-10.8,10.8v236.4H10.3c-5.7,0-10.3,4.6-10.3,10.3v35.4c0,5.7,4.6,10.3,10.3,10.3
		h244.8c5.7,0,10.3-4.6,10.3-10.3v-35.4C265.5,363.7,260.9,359.1,255.2,359.1z M91.5,314.5c0,1.6-1.3,3-3,3H49.3c-1.7,0-3-1.4-3-3
		v-39.3c0-1.6,1.3-3,3-3h39.3c1.7,0,3,1.4,3,3V314.5z M91.5,251.9c0,1.6-1.3,3-3,3H49.3c-1.7,0-3-1.4-3-3v-39.3c0-1.6,1.3-3,3-3
		h39.3c1.7,0,3,1.4,3,3V251.9z M91.5,188.5c0,1.6-1.3,3-3,3H49.3c-1.7,0-3-1.4-3-3v-39.3c0-1.6,1.3-3,3-3h39.3c1.7,0,3,1.4,3,3
		V188.5z M155.4,367.5c0,1.6-1.4,3-3,3h-39.3c-1.7,0-3-1.4-3-3v-92.3c0-1.6,1.3-3,3-3h39.3c1.6,0,3,1.4,3,3V367.5z M155.4,251.9
		c0,1.6-1.4,3-3,3h-39.3c-1.7,0-3-1.4-3-3v-39.3c0-1.6,1.3-3,3-3h39.3c1.6,0,3,1.4,3,3V251.9z M155.4,188.5c0,1.6-1.4,3-3,3h-39.3
		c-1.7,0-3-1.4-3-3v-39.3c0-1.6,1.3-3,3-3h39.3c1.6,0,3,1.4,3,3V188.5z M219.4,314.5c0,1.6-1.4,3-3,3h-39.3c-1.6,0-3-1.4-3-3v-39.3
		c0-1.6,1.4-3,3-3h39.3c1.6,0,3,1.4,3,3V314.5z M219.4,251.9c0,1.6-1.4,3-3,3h-39.3c-1.6,0-3-1.4-3-3v-39.3c0-1.6,1.4-3,3-3h39.3
		c1.6,0,3,1.4,3,3V251.9z M219.4,188.5c0,1.6-1.4,3-3,3h-39.3c-1.6,0-3-1.4-3-3v-39.3c0-1.6,1.4-3,3-3h39.3c1.6,0,3,1.4,3,3V188.5z"
		/>
</g>
</svg>
