<?xml version="1.0" encoding="utf-8"?>
<!-- Generator: Adobe Illustrator 19.2.1, SVG Export Plug-In . SVG Version: 6.00 Build 0)  -->
<svg version="1.1" id="Capa_1" xmlns="http://www.w3.org/2000/svg" xmlns:xlink="http://www.w3.org/1999/xlink" x="0px" y="0px"
	 viewBox="0 0 125 125" style="enable-background:new 0 0 125 125;" xml:space="preserve">
<style type="text/css">
	.st0{fill:#333333;}
</style>
<g>
	<path class="st0" d="M20.7,13.4C20.7,6,26.7,0,34.1,0c7.4,0,13.4,6,13.4,13.4s-6,13.4-13.4,13.4C26.7,26.9,20.7,20.9,20.7,13.4z
		 M49.7,11.4L89,4.5l-3.2,34.2l-14.6-6.1l-0.7,7.5L64,37.2c-4.2,6.2-11.8,9.1-19.3,9.1c-2.7,0-5.3-0.4-7.8-1.1l-5,23.2
		c-0.8,3.5-3.2,5.8-6.2,7l0,42.4c0,3.9-3.2,7.1-7.1,7.1c0,0,0,0,0,0c-3.9,0-7.1-3.2-7.1-7.1l0-44.8c-2.8-2.4-4.5-5.9-3.7-9.7l6.2-29
		c1.2-5.4,6.6-8,11.3-8.1l0,0c0,0,1.6,0,3.1,0.3c1.5,0.3,2.8,1,2.8,1c2.8,1.4,5.5,3.9,6.6,7.1c5.7,2.5,14.4,1.7,17.7-3.3
		c0.1-0.1,0.2-0.2,0.2-0.3l0.4-4.7l-7.5-3.1L49.7,11.4z M59.5,28.9c1.1-0.1,2.1,0.2,3.1,0.8c1.4,0.9,2.2,2.4,2.3,4l2.3,1l0.3-3.6
		l-8-3.4L59.5,28.9z M90.3,36.4l18.6,12l1.5-2.4L91.8,34L90.3,36.4z M114.8,4.2l-0.6-2.8L92.6,6.5l0.6,2.8L114.8,4.2z M93,20.9
		l-0.2,2.8l24.4,1.4l0.2-2.8L93,20.9z"/>
</g>
</svg>
